<svg xmlns="http://www.w3.org/2000/svg" xmlns:xlink="http://www.w3.org/1999/xlink" width="2000" zoomAndPan="magnify" viewBox="0 0 1500 487.499991" height="650" preserveAspectRatio="xMidYMid meet" version="1.0"><defs><g/><clipPath id="27b97fe7ba"><path d="M 87 429 L 186 429 L 186 470.191406 L 87 470.191406 Z M 87 429 " clip-rule="nonzero"/></clipPath><clipPath id="39467b2013"><path d="M 0.46875 0.445312 L 328.851562 0.445312 L 328.851562 470.191406 L 0.46875 470.191406 Z M 0.46875 0.445312 " clip-rule="nonzero"/></clipPath><clipPath id="8202a76551"><path d="M 409 26 L 1369.195312 26 L 1369.195312 294 L 409 294 Z M 409 26 " clip-rule="nonzero"/></clipPath><clipPath id="5a5e51cdf9"><rect x="0" width="961" y="0" height="268"/></clipPath><clipPath id="d678e07f37"><rect x="0" width="1370" y="0" height="471"/></clipPath></defs><g transform="matrix(1, 0, 0, 1, 49, 8)"><g clip-path="url(#d678e07f37)"><path fill="#f5f0e8" d="M 220.664062 302.476562 C 220.433594 302.476562 220.203125 302.453125 219.96875 302.414062 C 217.703125 302.03125 216.164062 299.925781 216.492188 297.65625 C 216.796875 293.230469 211.789062 249.878906 208.519531 223.257812 C 192.746094 171.554688 173.253906 150.628906 165.515625 143.984375 C 160.148438 157.21875 173.117188 173.917969 173.265625 174.105469 L 173.6875 174.644531 L 173.917969 175.289062 C 181.636719 196.59375 186.074219 247.527344 183.617188 259.820312 C 181.183594 271.996094 171.652344 285.597656 171.242188 286.164062 C 169.902344 288.0625 167.265625 288.515625 165.367188 287.179688 C 163.46875 285.839844 163.007812 283.203125 164.355469 281.304688 C 164.441406 281.179688 173.265625 268.570312 175.351562 258.164062 C 177.355469 248.136719 173.675781 200.117188 166.203125 178.765625 C 163.25 174.8125 147.898438 152.640625 160.84375 135.234375 L 163.070312 132.242188 L 166.316406 134.085938 C 167.496094 134.761719 195.480469 151.355469 216.691406 221.167969 L 216.796875 221.515625 L 216.839844 221.875 C 219.496094 243.5 225.597656 294.285156 224.820312 298.953125 C 224.472656 301.019531 222.6875 302.476562 220.664062 302.476562 Z M 216.5 297.5625 C 216.5 297.582031 216.492188 297.605469 216.492188 297.625 C 216.492188 297.605469 216.492188 297.582031 216.5 297.5625 Z M 216.5 297.5625 " fill-opacity="1" fill-rule="nonzero"/><path fill="#f5f0e8" d="M 178.925781 437.644531 L 87.234375 437.644531 L 87.195312 433.46875 C 87.183594 432.023438 86.855469 397.886719 91.09375 377.097656 C 92.589844 369.757812 91.632812 361.96875 90.535156 352.953125 C 88.722656 338.132812 86.667969 321.324219 94.730469 300.546875 C 106.773438 269.519531 94.605469 178.492188 94.488281 177.574219 L 93.984375 173.875 L 97.597656 172.925781 C 98 172.820312 107.4375 170.46875 117.664062 178.261719 C 133.886719 190.636719 142.5 220.242188 143.269531 266.273438 C 148.785156 269.960938 166.339844 281.050781 179.863281 282.234375 C 182.183594 282.433594 183.902344 284.480469 183.703125 286.796875 C 183.5 289.117188 181.457031 290.824219 179.136719 290.636719 C 160.65625 289.023438 137.597656 272.640625 136.628906 271.945312 L 134.890625 270.699219 L 134.867188 268.558594 C 134.246094 213.074219 122.386719 192.472656 112.550781 184.964844 C 109.039062 182.289062 105.792969 181.328125 103.441406 181.035156 C 105.832031 200.441406 113.941406 274.378906 102.605469 303.582031 C 95.300781 322.390625 97.230469 338.078125 98.917969 351.921875 C 100.066406 361.261719 101.140625 370.085938 99.371094 378.773438 C 96.15625 394.546875 95.691406 419.394531 95.636719 429.199219 L 176.3125 429.199219 C 174.929688 420.417969 172.621094 403.832031 173 392.785156 C 173.589844 375.609375 198.273438 344.625 215.097656 329.78125 C 230.121094 316.527344 230.679688 304.164062 230.703125 303.042969 C 228.425781 258.628906 238.355469 226.746094 238.777344 225.417969 L 238.820312 225.300781 L 267.84375 142.339844 C 265.25 141.972656 262.835938 142.394531 260.539062 143.597656 C 251.375 148.382812 245.945312 164.585938 244.628906 170.425781 L 244.480469 171.058594 L 244.15625 171.617188 L 215.941406 220.105469 C 214.773438 222.117188 212.1875 222.804688 210.175781 221.632812 C 208.160156 220.464844 207.476562 217.878906 208.644531 215.867188 L 236.542969 167.917969 C 237.554688 163.859375 243.269531 143.121094 256.59375 136.132812 C 262.257812 133.167969 268.402344 132.988281 274.867188 135.605469 L 278.597656 137.113281 L 246.789062 228.023438 C 246.347656 229.445312 236.941406 260.664062 239.113281 302.738281 L 239.113281 302.886719 C 239.125 303.570312 239.1875 319.765625 220.65625 336.117188 C 203.238281 351.488281 181.847656 380.324219 181.414062 393.089844 C 181.003906 404.929688 184.082031 424.6875 185.042969 430.453125 C 185.335938 432.246094 184.832031 434.070312 183.660156 435.460938 C 182.46875 436.855469 180.75 437.644531 178.925781 437.644531 Z M 178.925781 437.644531 " fill-opacity="1" fill-rule="nonzero"/><path fill="#f5f0e8" d="M 234.5625 294.082031 C 233.875 294.082031 233.179688 293.914062 232.535156 293.566406 C 230.492188 292.449219 229.742188 289.886719 230.871094 287.84375 L 266.441406 223.015625 C 270.257812 214.378906 282.921875 194.0625 288.097656 185.863281 C 286.167969 185.007812 284.640625 185.144531 283.554688 185.375 C 276.164062 187.011719 269.246094 199.039062 267.199219 203.53125 L 266.949219 204.089844 L 246.601562 227.632812 C 245.082031 229.394531 242.414062 229.582031 240.65625 228.066406 C 238.894531 226.546875 238.695312 223.878906 240.222656 222.117188 L 259.777344 199.484375 C 261.527344 195.78125 269.722656 179.800781 281.707031 177.144531 C 285.292969 176.339844 290.796875 176.445312 296.605469 181.445312 L 299.378906 183.828125 L 297.40625 186.90625 C 297.214844 187.199219 278.429688 216.59375 274.085938 226.558594 L 273.917969 226.894531 L 238.25 291.890625 C 237.492188 293.292969 236.046875 294.082031 234.5625 294.082031 Z M 234.5625 294.082031 " fill-opacity="1" fill-rule="nonzero"/><path fill="#f5f0e8" d="M 236.847656 289.929688 C 235.363281 289.929688 233.917969 289.140625 233.148438 287.738281 C 232.03125 285.691406 232.769531 283.128906 234.8125 282.011719 L 260.105469 268.128906 L 275.414062 253.714844 C 266.707031 249.707031 256.933594 257.722656 256.46875 258.113281 C 254.675781 259.609375 252.019531 259.367188 250.53125 257.585938 C 249.046875 255.800781 249.277344 253.136719 251.058594 251.648438 C 257.628906 246.15625 273.179688 238.796875 284.988281 250.234375 L 288.160156 253.316406 L 265.101562 275.011719 L 238.871094 289.414062 C 238.230469 289.769531 237.535156 289.929688 236.847656 289.929688 Z M 236.847656 289.929688 " fill-opacity="1" fill-rule="nonzero"/><g clip-path="url(#27b97fe7ba)"><path fill="#f5f0e8" d="M 185.1875 470.539062 L 87.195312 470.539062 L 87.195312 429.210938 L 185.1875 429.210938 Z M 95.628906 462.105469 L 176.753906 462.105469 L 176.753906 437.644531 L 95.628906 437.644531 Z M 95.628906 462.105469 " fill-opacity="1" fill-rule="nonzero"/></g><path fill="#f5f0e8" d="M 131.304688 185.945312 C 130.21875 185.945312 129.132812 185.523438 128.308594 184.691406 C 114.773438 171.007812 112.832031 152.738281 122.996094 134.570312 C 131.578125 119.230469 131.695312 99.125 131.695312 98.925781 C 131.695312 96.597656 133.582031 94.710938 135.910156 94.710938 C 138.242188 94.710938 140.128906 96.597656 140.128906 98.914062 C 140.128906 99.824219 140.042969 121.382812 130.367188 138.683594 C 125.546875 147.296875 119.65625 163.953125 134.308594 178.757812 C 135.945312 180.410156 135.933594 183.078125 134.277344 184.722656 C 133.445312 185.546875 132.371094 185.945312 131.304688 185.945312 Z M 131.304688 185.945312 " fill-opacity="1" fill-rule="nonzero"/><path fill="#f5f0e8" d="M 129.535156 187.402344 C 111.441406 187.402344 97.261719 166.726562 97.261719 140.328125 C 97.261719 113.929688 111.429688 93.253906 129.535156 93.253906 C 147.625 93.253906 161.804688 113.929688 161.804688 140.328125 C 161.804688 166.726562 147.625 187.402344 129.535156 187.402344 Z M 129.535156 101.6875 C 116.617188 101.6875 105.695312 119.378906 105.695312 140.328125 C 105.695312 161.277344 116.609375 178.96875 129.535156 178.96875 C 142.457031 178.96875 153.371094 161.277344 153.371094 140.328125 C 153.371094 119.378906 142.449219 101.6875 129.535156 101.6875 Z M 129.535156 101.6875 " fill-opacity="1" fill-rule="nonzero"/><g clip-path="url(#39467b2013)"><path fill="#f5f0e8" d="M 237.460938 470.410156 L 91.652344 470.410156 C 41.375 470.410156 0.480469 429.503906 0.480469 379.238281 L 0.480469 91.621094 C 0.480469 41.339844 41.375 0.445312 91.652344 0.445312 L 237.460938 0.445312 C 287.726562 0.445312 328.632812 41.339844 328.632812 91.621094 L 328.632812 379.238281 C 328.632812 429.503906 287.726562 470.410156 237.460938 470.410156 Z M 91.652344 8.878906 C 46.035156 8.878906 8.914062 46 8.914062 91.621094 L 8.914062 379.238281 C 8.914062 424.855469 46.035156 461.976562 91.652344 461.976562 L 237.460938 461.976562 C 283.078125 461.976562 320.199219 424.855469 320.199219 379.238281 L 320.199219 91.621094 C 320.199219 46 283.078125 8.878906 237.460938 8.878906 Z M 91.652344 8.878906 " fill-opacity="1" fill-rule="nonzero"/></g><path fill="#f5f0e8" d="M 174.320312 114.75 L 170.28125 101.246094 C 165.726562 86.023438 162.753906 83.046875 147.53125 78.496094 L 134.023438 74.457031 L 147.53125 70.417969 C 162.753906 65.863281 165.726562 62.890625 170.28125 47.667969 L 174.320312 34.160156 L 178.355469 47.667969 C 182.910156 62.890625 185.882812 65.863281 201.109375 70.417969 L 214.613281 74.457031 L 201.109375 78.496094 C 185.882812 83.046875 182.910156 86.023438 178.355469 101.246094 Z M 160.929688 74.445312 C 167.371094 77.535156 171.230469 81.394531 174.328125 87.84375 C 177.417969 81.402344 181.277344 77.546875 187.730469 74.445312 C 181.289062 71.355469 177.429688 67.5 174.328125 61.046875 C 171.230469 67.5 167.371094 71.355469 160.929688 74.445312 Z M 160.929688 74.445312 " fill-opacity="1" fill-rule="nonzero"/><g clip-path="url(#8202a76551)"><g transform="matrix(1, 0, 0, 1, 409, 26)"><g clip-path="url(#5a5e51cdf9)"><g fill="#f5f0e8" fill-opacity="1"><g transform="translate(1.155877, 200.776545)"><g><path d="M 160.046875 -157.90625 L 150.171875 -132.03125 C 140.921875 -145.90625 131.269531 -156.304688 121.21875 -163.234375 C 111.175781 -170.171875 101.128906 -174.257812 91.078125 -175.5 C 81.035156 -176.75 71.300781 -175.6875 61.875 -172.3125 C 51.738281 -168.570312 43.738281 -162.789062 37.875 -154.96875 C 32.007812 -147.144531 27.960938 -138.253906 25.734375 -128.296875 C 23.515625 -118.335938 22.804688 -108.15625 23.609375 -97.75 C 24.410156 -87.351562 26.410156 -77.707031 29.609375 -68.8125 C 33.515625 -57.96875 39.515625 -48.234375 47.609375 -39.609375 C 55.703125 -30.984375 64.992188 -24.179688 75.484375 -19.203125 C 85.972656 -14.222656 96.816406 -11.554688 108.015625 -11.203125 C 119.222656 -10.847656 129.984375 -13.335938 140.296875 -18.671875 L 140.296875 -58.421875 C 140.296875 -72.640625 138.875 -82.148438 136.03125 -86.953125 C 133.1875 -91.753906 128.921875 -93.976562 123.234375 -93.625 L 123.234375 -96.03125 L 182.71875 -96.03125 L 182.71875 -93.625 C 177.019531 -93.976562 172.75 -91.753906 169.90625 -86.953125 C 167.0625 -82.148438 165.640625 -72.640625 165.640625 -58.421875 L 165.640625 -8 L 163.234375 -8 C 161.640625 -14.226562 159.019531 -17.960938 155.375 -19.203125 C 151.726562 -20.453125 147.503906 -19.296875 142.703125 -15.734375 C 135.410156 -10.398438 127.453125 -6.441406 118.828125 -3.859375 C 110.203125 -1.285156 101.265625 0 92.015625 0 C 79.035156 0 66.941406 -2.265625 55.734375 -6.796875 C 44.535156 -11.335938 34.757812 -17.738281 26.40625 -26 C 18.050781 -34.269531 11.5625 -43.960938 6.9375 -55.078125 C 2.3125 -66.191406 0 -78.238281 0 -91.21875 C 0 -104.019531 2.398438 -115.929688 7.203125 -126.953125 C 12.003906 -137.984375 18.628906 -147.675781 27.078125 -156.03125 C 35.523438 -164.394531 45.300781 -170.890625 56.40625 -175.515625 C 67.519531 -180.140625 79.390625 -182.453125 92.015625 -182.453125 C 104.460938 -182.453125 116.6875 -180.316406 128.6875 -176.046875 C 140.695312 -171.773438 151.148438 -165.726562 160.046875 -157.90625 Z M 160.046875 -157.90625 "/></g></g></g><g fill="#f5f0e8" fill-opacity="1"><g transform="translate(188.668609, 200.776545)"><g><path d="M 41.078125 -37.609375 C 41.078125 -23.554688 42.5 -14.128906 45.34375 -9.328125 C 48.1875 -4.535156 52.453125 -2.226562 58.140625 -2.40625 L 58.140625 0 L 0 0 L 0 -2.40625 C 5.6875 -2.226562 9.953125 -4.535156 12.796875 -9.328125 C 15.648438 -14.128906 17.078125 -23.554688 17.078125 -37.609375 L 17.078125 -89.359375 C 17.078125 -103.578125 15.648438 -113.128906 12.796875 -118.015625 C 9.953125 -122.910156 5.6875 -125.179688 0 -124.828125 L 0 -127.234375 C 7.820312 -127.234375 15.734375 -128.875 23.734375 -132.15625 C 31.742188 -135.445312 37.523438 -139.675781 41.078125 -144.84375 L 41.078125 -113.09375 C 44.804688 -118.425781 49.070312 -123.535156 53.875 -128.421875 C 58.675781 -133.316406 64.007812 -137.273438 69.875 -140.296875 C 75.75 -143.328125 82.066406 -144.84375 88.828125 -144.84375 C 94.335938 -144.84375 99.671875 -143.726562 104.828125 -141.5 C 109.984375 -139.28125 114.609375 -136.390625 118.703125 -132.828125 L 110.15625 -110.421875 C 107.488281 -114.515625 104.375 -118.5625 100.8125 -122.5625 C 97.257812 -126.5625 93.4375 -129.757812 89.34375 -132.15625 C 85.257812 -134.5625 80.90625 -135.675781 76.28125 -135.5 C 71.65625 -135.320312 66.851562 -133.1875 61.875 -129.09375 C 57.613281 -125.71875 53.703125 -121.71875 50.140625 -117.09375 C 46.585938 -112.46875 43.566406 -108.203125 41.078125 -104.296875 Z M 41.078125 -37.609375 "/></g></g></g><g fill="#f5f0e8" fill-opacity="1"><g transform="translate(323.101648, 200.776545)"><g><path d="M 151.765625 -10.9375 C 149.816406 -7.019531 147.109375 -4.21875 143.640625 -2.53125 C 140.171875 -0.84375 136.476562 0 132.5625 0 C 123.851562 0 117.273438 -2.617188 112.828125 -7.859375 C 108.378906 -13.109375 104.820312 -19.289062 102.15625 -26.40625 C 100.375 -31.5625 98.769531 -37.160156 97.34375 -43.203125 C 95.925781 -49.253906 94.6875 -55.390625 93.625 -61.609375 C 92.914062 -51.117188 90.691406 -41.160156 86.953125 -31.734375 C 83.222656 -22.316406 77.578125 -14.671875 70.015625 -8.796875 C 62.460938 -2.929688 52.375 0 39.75 0 C 28.1875 0 18.492188 -3.195312 10.671875 -9.59375 C 2.847656 -16 -0.707031 -25.425781 0 -37.875 C 0.53125 -45.875 2.660156 -52.71875 6.390625 -58.40625 C 10.128906 -64.101562 14.800781 -69.128906 20.40625 -73.484375 C 26.007812 -77.835938 31.832031 -81.878906 37.875 -85.609375 C 43.914062 -89.347656 49.472656 -93.265625 54.546875 -97.359375 C 59.617188 -101.453125 63.488281 -106.164062 66.15625 -111.5 C 70.0625 -118.96875 71.035156 -125.097656 69.078125 -129.890625 C 67.128906 -134.691406 63.441406 -137.757812 58.015625 -139.09375 C 52.585938 -140.4375 46.5 -139.59375 39.75 -136.5625 C 33.519531 -133.71875 27.5625 -129.671875 21.875 -124.421875 C 16.1875 -119.179688 11.828125 -114.515625 8.796875 -110.421875 L 0.265625 -132.828125 C 8.085938 -136.566406 16.84375 -139.503906 26.53125 -141.640625 C 36.226562 -143.773438 46.234375 -144.84375 56.546875 -144.84375 C 69.703125 -144.84375 79.925781 -143.019531 87.21875 -139.375 C 94.507812 -135.726562 100.019531 -130.082031 103.75 -122.4375 C 107.488281 -114.789062 110.515625 -105.097656 112.828125 -93.359375 C 114.785156 -84.285156 116.5625 -75.035156 118.15625 -65.609375 C 119.757812 -56.191406 121.671875 -47.347656 123.890625 -39.078125 C 126.117188 -30.804688 129.097656 -23.828125 132.828125 -18.140625 C 134.429688 -15.648438 136.878906 -13.425781 140.171875 -11.46875 C 143.460938 -9.507812 146.707031 -9.863281 149.90625 -12.53125 Z M 86.6875 -100.828125 C 85.445312 -105.628906 83.9375 -110.25 82.15625 -114.6875 C 80.375 -119.132812 78.148438 -123.050781 75.484375 -126.4375 C 76.554688 -121.988281 76.601562 -117.316406 75.625 -112.421875 C 74.644531 -107.535156 73.085938 -103.222656 70.953125 -99.484375 C 68.109375 -94.328125 64.414062 -89.703125 59.875 -85.609375 C 55.34375 -81.523438 50.675781 -77.523438 45.875 -73.609375 C 41.070312 -69.703125 36.757812 -65.390625 32.9375 -60.671875 C 29.113281 -55.960938 26.492188 -50.410156 25.078125 -44.015625 C 23.828125 -37.429688 24.398438 -31.160156 26.796875 -25.203125 C 29.203125 -19.242188 34.226562 -15.289062 41.875 -13.34375 C 48.457031 -11.738281 54.59375 -12.179688 60.28125 -14.671875 C 65.96875 -17.160156 70.859375 -20.847656 74.953125 -25.734375 C 79.046875 -30.628906 82.066406 -35.832031 84.015625 -41.34375 C 87.046875 -50.050781 88.78125 -59.960938 89.21875 -71.078125 C 89.664062 -82.191406 88.820312 -92.109375 86.6875 -100.828125 Z M 86.6875 -100.828125 "/></g></g></g><g fill="#f5f0e8" fill-opacity="1"><g transform="translate(481.007102, 200.776545)"><g><path d="M 166.4375 -10.9375 C 164.488281 -7.019531 161.734375 -4.21875 158.171875 -2.53125 C 154.617188 -0.84375 150.882812 0 146.96875 0 C 138.96875 0 132.878906 -2.175781 128.703125 -6.53125 C 124.523438 -10.882812 121.191406 -16.175781 118.703125 -22.40625 C 114.785156 -32.1875 111.894531 -42.453125 110.03125 -53.203125 C 108.164062 -63.960938 106.34375 -74.765625 104.5625 -85.609375 C 102.78125 -96.460938 99.9375 -106.78125 96.03125 -116.5625 C 93.351562 -123.5 89.878906 -128.03125 85.609375 -130.15625 C 81.347656 -132.289062 76.769531 -132.644531 71.875 -131.21875 C 66.988281 -129.800781 62.054688 -126.960938 57.078125 -122.703125 C 54.054688 -120.035156 51.164062 -117.054688 48.40625 -113.765625 C 45.65625 -110.472656 43.210938 -107.316406 41.078125 -104.296875 L 41.078125 -37.609375 C 41.078125 -23.554688 42.5 -14.128906 45.34375 -9.328125 C 48.1875 -4.535156 52.453125 -2.226562 58.140625 -2.40625 L 58.140625 0 L 0 0 L 0 -2.40625 C 5.6875 -2.226562 9.953125 -4.535156 12.796875 -9.328125 C 15.648438 -14.128906 17.078125 -23.554688 17.078125 -37.609375 L 17.078125 -89.359375 C 17.078125 -103.578125 15.648438 -113.128906 12.796875 -118.015625 C 9.953125 -122.910156 5.6875 -125.179688 0 -124.828125 L 0 -127.234375 C 7.820312 -127.234375 15.734375 -128.875 23.734375 -132.15625 C 31.742188 -135.445312 37.523438 -139.675781 41.078125 -144.84375 L 41.078125 -112.828125 C 44.984375 -118.160156 49.289062 -123.269531 54 -128.15625 C 58.71875 -133.050781 63.878906 -137.054688 69.484375 -140.171875 C 75.085938 -143.285156 81.085938 -144.84375 87.484375 -144.84375 C 93.710938 -144.84375 99.535156 -143.148438 104.953125 -139.765625 C 110.378906 -136.390625 114.78125 -130.96875 118.15625 -123.5 C 121.71875 -116.03125 124.519531 -107.492188 126.5625 -97.890625 C 128.613281 -88.285156 130.4375 -78.503906 132.03125 -68.546875 C 133.632812 -58.585938 135.59375 -49.207031 137.90625 -40.40625 C 140.21875 -31.601562 143.328125 -24.179688 147.234375 -18.140625 C 149.015625 -15.648438 151.503906 -13.425781 154.703125 -11.46875 C 157.898438 -9.507812 161.191406 -9.863281 164.578125 -12.53125 Z M 166.4375 -10.9375 "/></g></g></g><g fill="#f5f0e8" fill-opacity="1"><g transform="translate(654.383015, 200.776545)"><g><path d="M 41.078125 -37.609375 C 41.078125 -23.554688 42.5 -14.128906 45.34375 -9.328125 C 48.1875 -4.535156 52.453125 -2.226562 58.140625 -2.40625 L 58.140625 0 L 0 0 L 0 -2.40625 C 5.6875 -2.226562 9.953125 -4.535156 12.796875 -9.328125 C 15.648438 -14.128906 17.078125 -23.554688 17.078125 -37.609375 L 17.078125 -89.359375 C 17.078125 -103.578125 15.648438 -113.128906 12.796875 -118.015625 C 9.953125 -122.910156 5.6875 -125.179688 0 -124.828125 L 0 -127.234375 C 7.820312 -127.234375 15.734375 -128.875 23.734375 -132.15625 C 31.742188 -135.445312 37.523438 -139.675781 41.078125 -144.84375 Z M 29.078125 -182.453125 C 33.878906 -182.453125 38.007812 -180.757812 41.46875 -177.375 C 44.9375 -174 46.671875 -169.910156 46.671875 -165.109375 C 46.671875 -160.128906 44.9375 -155.945312 41.46875 -152.5625 C 38.007812 -149.1875 33.878906 -147.5 29.078125 -147.5 C 24.273438 -147.5 20.140625 -149.1875 16.671875 -152.5625 C 13.203125 -155.945312 11.46875 -160.128906 11.46875 -165.109375 C 11.46875 -169.910156 13.203125 -174 16.671875 -177.375 C 20.140625 -180.757812 24.273438 -182.453125 29.078125 -182.453125 Z M 29.078125 -182.453125 "/></g></g></g><g fill="#f5f0e8" fill-opacity="1"><g transform="translate(719.198868, 200.776545)"><g><path d="M 0 -144.84375 C 4.625 -144.84375 9.46875 -145.816406 14.53125 -147.765625 C 19.601562 -149.722656 24.316406 -152.4375 28.671875 -155.90625 C 33.023438 -159.375 36.359375 -163.421875 38.671875 -168.046875 L 41.078125 -168.046875 L 41.078125 -144.84375 L 74.421875 -144.84375 L 74.421875 -140.03125 L 41.078125 -140.03125 L 41.078125 -32.8125 C 41.078125 -23.914062 42.628906 -17.867188 45.734375 -14.671875 C 48.847656 -11.472656 52.847656 -10.804688 57.734375 -12.671875 C 62.628906 -14.535156 67.566406 -18.398438 72.546875 -24.265625 L 74.421875 -22.671875 C 70.503906 -17.160156 65.96875 -12.003906 60.8125 -7.203125 C 55.65625 -2.398438 49.429688 0 42.140625 0 C 35.921875 0 30.988281 -1.644531 27.34375 -4.9375 C 23.695312 -8.226562 21.070312 -12.363281 19.46875 -17.34375 C 17.875 -22.320312 17.078125 -27.476562 17.078125 -32.8125 L 17.078125 -140.03125 L 0 -140.03125 Z M 0 -144.84375 "/></g></g></g><g fill="#f5f0e8" fill-opacity="1"><g transform="translate(800.552216, 200.776545)"><g><path d="M 76.015625 -144.84375 C 66.054688 -144.84375 56.675781 -142.972656 47.875 -139.234375 C 39.070312 -135.503906 31.378906 -130.300781 24.796875 -123.625 C 18.222656 -116.957031 13.066406 -109.222656 9.328125 -100.421875 C 5.597656 -91.617188 3.734375 -82.238281 3.734375 -72.28125 C 3.734375 -62.320312 5.597656 -52.941406 9.328125 -44.140625 C 13.066406 -35.335938 18.222656 -27.644531 24.796875 -21.0625 C 31.378906 -14.488281 39.070312 -9.332031 47.875 -5.59375 C 56.675781 -1.863281 66.054688 0 76.015625 0 C 85.972656 0 95.351562 -1.863281 104.15625 -5.59375 C 112.957031 -9.332031 120.691406 -14.488281 127.359375 -21.0625 C 134.035156 -27.644531 139.238281 -35.335938 142.96875 -44.140625 C 146.707031 -52.941406 148.578125 -62.320312 148.578125 -72.28125 C 148.578125 -82.238281 146.707031 -91.617188 142.96875 -100.421875 C 139.238281 -109.222656 134.035156 -116.957031 127.359375 -123.625 C 120.691406 -130.300781 112.957031 -135.503906 104.15625 -139.234375 C 95.351562 -142.972656 85.972656 -144.84375 76.015625 -144.84375 Z M 53.609375 -136.03125 C 62.148438 -139.050781 70.863281 -138.914062 79.75 -135.625 C 88.644531 -132.34375 96.867188 -126.609375 104.421875 -118.421875 C 111.984375 -110.242188 117.804688 -100.289062 121.890625 -88.5625 C 125.984375 -76.820312 127.675781 -65.394531 126.96875 -54.28125 C 126.257812 -43.164062 123.457031 -33.515625 118.5625 -25.328125 C 113.675781 -17.148438 107.050781 -11.550781 98.6875 -8.53125 C 90.332031 -5.6875 81.664062 -5.910156 72.6875 -9.203125 C 63.707031 -12.492188 55.484375 -18.226562 48.015625 -26.40625 C 40.546875 -34.582031 34.675781 -44.539062 30.40625 -56.28125 C 26.3125 -68.019531 24.578125 -79.445312 25.203125 -90.5625 C 25.828125 -101.675781 28.628906 -111.320312 33.609375 -119.5 C 38.585938 -127.675781 45.253906 -133.1875 53.609375 -136.03125 Z M 53.609375 -136.03125 "/></g></g></g></g></g></g><g fill="#f5f0e8" fill-opacity="1"><g transform="translate(625.276981, 411.327358)"><g><path d="M 30.265625 -50.953125 C 32.679688 -50.953125 34.769531 -50.722656 36.53125 -50.265625 C 38.300781 -49.804688 40.007812 -49.210938 41.65625 -48.484375 C 43.007812 -47.953125 43.878906 -47.6875 44.265625 -47.6875 C 44.847656 -47.6875 45.40625 -47.988281 45.9375 -48.59375 C 46.46875 -49.195312 46.832031 -49.984375 47.03125 -50.953125 L 48.265625 -50.953125 L 49.5 -34.109375 L 48.265625 -34.109375 C 47.828125 -37.054688 46.75 -39.59375 45.03125 -41.71875 C 43.3125 -43.851562 41.207031 -45.460938 38.71875 -46.546875 C 36.226562 -47.640625 33.601562 -48.1875 30.84375 -48.1875 C 25.1875 -48.1875 20.648438 -46.164062 17.234375 -42.125 C 13.828125 -38.09375 12.125 -31.988281 12.125 -23.8125 C 12.125 -18.96875 13.050781 -14.910156 14.90625 -11.640625 C 16.769531 -8.378906 19.210938 -5.960938 22.234375 -4.390625 C 25.265625 -2.816406 28.5 -2.03125 31.9375 -2.03125 C 35.46875 -2.03125 38.828125 -2.925781 42.015625 -4.71875 C 45.210938 -6.507812 47.707031 -8.90625 49.5 -11.90625 L 50.59375 -11.171875 C 45.800781 -2.992188 38.734375 1.09375 29.390625 1.09375 C 24.554688 1.09375 20.128906 -0.03125 16.109375 -2.28125 C 12.097656 -4.53125 8.914062 -7.59375 6.5625 -11.46875 C 4.21875 -15.34375 3.046875 -19.597656 3.046875 -24.234375 C 3.046875 -29.128906 4.253906 -33.617188 6.671875 -37.703125 C 9.097656 -41.796875 12.390625 -45.023438 16.546875 -47.390625 C 20.710938 -49.765625 25.285156 -50.953125 30.265625 -50.953125 Z M 30.265625 -50.953125 "/></g></g></g><g fill="#f5f0e8" fill-opacity="1"><g transform="translate(693.13614, 411.327358)"><g><path d="M 27.9375 -50.953125 C 32.539062 -50.953125 36.773438 -49.789062 40.640625 -47.46875 C 44.515625 -45.144531 47.585938 -41.984375 49.859375 -37.984375 C 52.128906 -33.992188 53.265625 -29.628906 53.265625 -24.890625 C 53.265625 -20.203125 52.128906 -15.859375 49.859375 -11.859375 C 47.585938 -7.867188 44.515625 -4.710938 40.640625 -2.390625 C 36.773438 -0.0664062 32.539062 1.09375 27.9375 1.09375 C 23.34375 1.09375 19.109375 -0.0664062 15.234375 -2.390625 C 11.367188 -4.710938 8.3125 -7.867188 6.0625 -11.859375 C 3.8125 -15.859375 2.6875 -20.203125 2.6875 -24.890625 C 2.6875 -29.628906 3.8125 -33.992188 6.0625 -37.984375 C 8.3125 -41.984375 11.367188 -45.144531 15.234375 -47.46875 C 19.109375 -49.789062 23.34375 -50.953125 27.9375 -50.953125 Z M 11.75 -24.890625 C 11.75 -20.242188 12.414062 -16.164062 13.75 -12.65625 C 15.082031 -9.15625 16.96875 -6.445312 19.40625 -4.53125 C 21.851562 -2.625 24.695312 -1.671875 27.9375 -1.671875 C 31.1875 -1.671875 34.039062 -2.625 36.5 -4.53125 C 38.96875 -6.445312 40.867188 -9.15625 42.203125 -12.65625 C 43.535156 -16.164062 44.203125 -20.242188 44.203125 -24.890625 C 44.203125 -29.441406 43.546875 -33.484375 42.234375 -37.015625 C 40.929688 -40.546875 39.054688 -43.289062 36.609375 -45.25 C 34.171875 -47.207031 31.257812 -48.1875 27.875 -48.1875 C 24.53125 -48.1875 21.648438 -47.191406 19.234375 -45.203125 C 16.816406 -43.222656 14.960938 -40.46875 13.671875 -36.9375 C 12.390625 -33.40625 11.75 -29.390625 11.75 -24.890625 Z M 11.75 -24.890625 "/></g></g></g><g fill="#f5f0e8" fill-opacity="1"><g transform="translate(764.769178, 411.327358)"><g><path d="M 45.9375 -39.125 L 44.5625 -39.125 C 44.226562 -41.925781 43.203125 -44.003906 41.484375 -45.359375 C 39.765625 -46.710938 37.160156 -47.390625 33.671875 -47.390625 L 17.921875 -47.390625 L 17.921875 -27.71875 L 30.265625 -27.71875 C 32.878906 -27.71875 34.707031 -28.191406 35.75 -29.140625 C 36.789062 -30.085938 37.3125 -31.578125 37.3125 -33.609375 L 37.3125 -34.765625 L 38.609375 -34.765625 L 38.609375 -17.78125 L 37.3125 -17.78125 L 37.3125 -18.65625 C 37.3125 -20.78125 36.800781 -22.335938 35.78125 -23.328125 C 34.757812 -24.328125 33.160156 -24.828125 30.984375 -24.828125 L 17.921875 -24.828125 L 17.921875 -7.265625 C 17.921875 -4.941406 18.5 -3.367188 19.65625 -2.546875 C 20.820312 -1.722656 22.640625 -1.3125 25.109375 -1.3125 L 25.109375 0 L 3.125 0 L 3.125 -1.3125 L 3.5625 -1.3125 C 5.738281 -1.3125 7.367188 -1.753906 8.453125 -2.640625 C 9.546875 -3.535156 10.09375 -5.097656 10.09375 -7.328125 L 10.09375 -42.890625 C 10.09375 -44.921875 9.535156 -46.375 8.421875 -47.25 C 7.304688 -48.125 5.539062 -48.5625 3.125 -48.5625 L 3.125 -49.859375 L 45.4375 -49.859375 Z M 45.9375 -39.125 "/></g></g></g><g fill="#f5f0e8" fill-opacity="1"><g transform="translate(828.85447, 411.327358)"><g><path d="M 45.9375 -39.125 L 44.5625 -39.125 C 44.226562 -41.925781 43.203125 -44.003906 41.484375 -45.359375 C 39.765625 -46.710938 37.160156 -47.390625 33.671875 -47.390625 L 17.921875 -47.390625 L 17.921875 -27.71875 L 30.265625 -27.71875 C 32.878906 -27.71875 34.707031 -28.191406 35.75 -29.140625 C 36.789062 -30.085938 37.3125 -31.578125 37.3125 -33.609375 L 37.3125 -34.765625 L 38.609375 -34.765625 L 38.609375 -17.78125 L 37.3125 -17.78125 L 37.3125 -18.65625 C 37.3125 -20.78125 36.800781 -22.335938 35.78125 -23.328125 C 34.757812 -24.328125 33.160156 -24.828125 30.984375 -24.828125 L 17.921875 -24.828125 L 17.921875 -7.265625 C 17.921875 -4.941406 18.5 -3.367188 19.65625 -2.546875 C 20.820312 -1.722656 22.640625 -1.3125 25.109375 -1.3125 L 25.109375 0 L 3.125 0 L 3.125 -1.3125 L 3.5625 -1.3125 C 5.738281 -1.3125 7.367188 -1.753906 8.453125 -2.640625 C 9.546875 -3.535156 10.09375 -5.097656 10.09375 -7.328125 L 10.09375 -42.890625 C 10.09375 -44.921875 9.535156 -46.375 8.421875 -47.25 C 7.304688 -48.125 5.539062 -48.5625 3.125 -48.5625 L 3.125 -49.859375 L 45.4375 -49.859375 Z M 45.9375 -39.125 "/></g></g></g><g fill="#f5f0e8" fill-opacity="1"><g transform="translate(892.939762, 411.327358)"><g><path d="M 42.75 -38.828125 L 41.515625 -38.828125 C 41.023438 -41.585938 40.128906 -43.628906 38.828125 -44.953125 C 37.523438 -46.285156 35.710938 -46.953125 33.390625 -46.953125 L 17.640625 -46.953125 L 17.640625 -27.71875 L 30.5625 -27.71875 C 32.882812 -27.71875 34.523438 -28.296875 35.484375 -29.453125 C 36.453125 -30.617188 36.960938 -32.460938 37.015625 -34.984375 L 38.328125 -34.984375 L 38.328125 -17.421875 L 37.015625 -17.421875 C 37.015625 -19.929688 36.53125 -21.789062 35.5625 -23 C 34.59375 -24.21875 32.875 -24.828125 30.40625 -24.828125 L 17.640625 -24.828125 L 17.640625 -6.609375 C 17.640625 -4.140625 18.609375 -2.90625 20.546875 -2.90625 L 33.3125 -2.90625 C 35.976562 -2.90625 38.328125 -3.710938 40.359375 -5.328125 C 42.390625 -6.953125 44.03125 -9.3125 45.28125 -12.40625 L 46.8125 -12.40625 L 42.75 0 L 2.609375 0 L 2.609375 -1.3125 C 5.128906 -1.3125 6.957031 -1.734375 8.09375 -2.578125 C 9.226562 -3.421875 9.796875 -5.003906 9.796875 -7.328125 L 9.796875 -43.03125 C 9.796875 -44.96875 9.226562 -46.375 8.09375 -47.25 C 6.957031 -48.125 5.128906 -48.5625 2.609375 -48.5625 L 2.609375 -49.859375 L 42.171875 -49.859375 Z M 42.75 -38.828125 "/></g></g></g><g fill="#f5f0e8" fill-opacity="1"><g transform="translate(957.025067, 411.327358)"><g><path d="M 42.75 -38.828125 L 41.515625 -38.828125 C 41.023438 -41.585938 40.128906 -43.628906 38.828125 -44.953125 C 37.523438 -46.285156 35.710938 -46.953125 33.390625 -46.953125 L 17.640625 -46.953125 L 17.640625 -27.71875 L 30.5625 -27.71875 C 32.882812 -27.71875 34.523438 -28.296875 35.484375 -29.453125 C 36.453125 -30.617188 36.960938 -32.460938 37.015625 -34.984375 L 38.328125 -34.984375 L 38.328125 -17.421875 L 37.015625 -17.421875 C 37.015625 -19.929688 36.53125 -21.789062 35.5625 -23 C 34.59375 -24.21875 32.875 -24.828125 30.40625 -24.828125 L 17.640625 -24.828125 L 17.640625 -6.609375 C 17.640625 -4.140625 18.609375 -2.90625 20.546875 -2.90625 L 33.3125 -2.90625 C 35.976562 -2.90625 38.328125 -3.710938 40.359375 -5.328125 C 42.390625 -6.953125 44.03125 -9.3125 45.28125 -12.40625 L 46.8125 -12.40625 L 42.75 0 L 2.609375 0 L 2.609375 -1.3125 C 5.128906 -1.3125 6.957031 -1.734375 8.09375 -2.578125 C 9.226562 -3.421875 9.796875 -5.003906 9.796875 -7.328125 L 9.796875 -43.03125 C 9.796875 -44.96875 9.226562 -46.375 8.09375 -47.25 C 6.957031 -48.125 5.128906 -48.5625 2.609375 -48.5625 L 2.609375 -49.859375 L 42.171875 -49.859375 Z M 42.75 -38.828125 "/></g></g></g><g fill="#f5f0e8" fill-opacity="1"><g transform="translate(1021.11723, 411.327358)"><g/></g></g><g fill="#f5f0e8" fill-opacity="1"><g transform="translate(1054.938945, 411.327358)"><g/></g></g><g fill="#f5f0e8" fill-opacity="1"><g transform="translate(1088.766639, 411.327358)"><g><path d="M 18.296875 -50.953125 C 19.929688 -50.953125 21.351562 -50.789062 22.5625 -50.46875 C 23.78125 -50.15625 25.015625 -49.734375 26.265625 -49.203125 C 26.898438 -48.960938 27.519531 -48.742188 28.125 -48.546875 C 28.726562 -48.359375 29.269531 -48.265625 29.75 -48.265625 C 30.914062 -48.265625 31.835938 -49.160156 32.515625 -50.953125 L 33.890625 -50.953125 L 33.890625 -34.40625 L 32.515625 -34.40625 C 32.273438 -36.96875 31.515625 -39.300781 30.234375 -41.40625 C 28.953125 -43.507812 27.351562 -45.164062 25.4375 -46.375 C 23.53125 -47.582031 21.488281 -48.1875 19.3125 -48.1875 C 16.9375 -48.1875 14.898438 -47.472656 13.203125 -46.046875 C 11.515625 -44.617188 10.671875 -42.890625 10.671875 -40.859375 C 10.671875 -38.492188 11.832031 -36.4375 14.15625 -34.6875 C 15.800781 -33.476562 18.097656 -32.03125 21.046875 -30.34375 C 23.660156 -28.738281 25.835938 -27.351562 27.578125 -26.1875 C 29.316406 -25.03125 30.9375 -23.773438 32.4375 -22.421875 C 33.789062 -21.117188 34.867188 -19.617188 35.671875 -17.921875 C 36.472656 -16.234375 36.875 -14.492188 36.875 -12.703125 C 36.875 -10.234375 36.195312 -7.929688 34.84375 -5.796875 C 33.488281 -3.671875 31.632812 -1.988281 29.28125 -0.75 C 26.9375 0.476562 24.363281 1.09375 21.5625 1.09375 C 19.769531 1.09375 18.179688 0.929688 16.796875 0.609375 C 15.421875 0.296875 13.984375 -0.125 12.484375 -0.65625 C 10.835938 -1.238281 9.601562 -1.53125 8.78125 -1.53125 C 7.476562 -1.53125 6.488281 -0.65625 5.8125 1.09375 L 4.5 1.09375 L 4.5 -15.671875 L 5.8125 -15.671875 C 6.632812 -11.367188 8.265625 -7.957031 10.703125 -5.4375 C 13.148438 -2.925781 16.304688 -1.671875 20.171875 -1.671875 C 22.929688 -1.671875 25.207031 -2.421875 27 -3.921875 C 28.789062 -5.421875 29.6875 -7.304688 29.6875 -9.578125 C 29.6875 -10.742188 29.46875 -11.804688 29.03125 -12.765625 C 28.59375 -13.734375 27.867188 -14.773438 26.859375 -15.890625 C 25.929688 -16.859375 24.617188 -17.910156 22.921875 -19.046875 C 21.234375 -20.179688 18.988281 -21.597656 16.1875 -23.296875 C 13.8125 -24.742188 11.992188 -25.890625 10.734375 -26.734375 C 9.484375 -27.585938 8.539062 -28.328125 7.90625 -28.953125 C 5.4375 -31.472656 4.203125 -34.5 4.203125 -38.03125 C 4.203125 -40.445312 4.816406 -42.632812 6.046875 -44.59375 C 7.285156 -46.550781 8.96875 -48.097656 11.09375 -49.234375 C 13.226562 -50.378906 15.628906 -50.953125 18.296875 -50.953125 Z M 18.296875 -50.953125 "/></g></g></g><g fill="#f5f0e8" fill-opacity="1"><g transform="translate(1144.505857, 411.327358)"><g><path d="M 24.890625 -48.5625 L 24.453125 -48.5625 C 22.035156 -48.5625 20.28125 -48.125 19.1875 -47.25 C 18.101562 -46.375 17.5625 -44.800781 17.5625 -42.53125 L 17.5625 -27.71875 L 42.09375 -27.71875 L 42.09375 -42.609375 C 42.09375 -44.878906 41.535156 -46.4375 40.421875 -47.28125 C 39.304688 -48.132812 37.539062 -48.5625 35.125 -48.5625 L 34.6875 -48.5625 L 34.6875 -49.859375 L 57.1875 -49.859375 L 57.1875 -48.5625 C 54.625 -48.5625 52.773438 -48.148438 51.640625 -47.328125 C 50.503906 -46.503906 49.9375 -44.878906 49.9375 -42.453125 L 49.9375 -7.265625 C 49.9375 -4.890625 50.503906 -3.300781 51.640625 -2.5 C 52.773438 -1.707031 54.625 -1.3125 57.1875 -1.3125 L 57.1875 0 L 34.6875 0 L 34.6875 -1.3125 C 37.351562 -1.3125 39.253906 -1.707031 40.390625 -2.5 C 41.523438 -3.300781 42.09375 -4.910156 42.09375 -7.328125 L 42.09375 -24.828125 L 17.5625 -24.828125 L 17.5625 -7.328125 C 17.5625 -4.910156 18.128906 -3.300781 19.265625 -2.5 C 20.398438 -1.707031 22.273438 -1.3125 24.890625 -1.3125 L 24.890625 0 L 2.546875 0 L 2.546875 -1.3125 C 5.109375 -1.351562 6.941406 -1.785156 8.046875 -2.609375 C 9.160156 -3.429688 9.71875 -5.003906 9.71875 -7.328125 L 9.71875 -42.609375 C 9.71875 -44.828125 9.160156 -46.375 8.046875 -47.25 C 6.941406 -48.125 5.226562 -48.5625 2.90625 -48.5625 L 2.546875 -48.5625 L 2.546875 -49.859375 L 24.890625 -49.859375 Z M 24.890625 -48.5625 "/></g></g></g><g fill="#f5f0e8" fill-opacity="1"><g transform="translate(1219.912762, 411.327358)"><g><path d="M 27.9375 -50.953125 C 32.539062 -50.953125 36.773438 -49.789062 40.640625 -47.46875 C 44.515625 -45.144531 47.585938 -41.984375 49.859375 -37.984375 C 52.128906 -33.992188 53.265625 -29.628906 53.265625 -24.890625 C 53.265625 -20.203125 52.128906 -15.859375 49.859375 -11.859375 C 47.585938 -7.867188 44.515625 -4.710938 40.640625 -2.390625 C 36.773438 -0.0664062 32.539062 1.09375 27.9375 1.09375 C 23.34375 1.09375 19.109375 -0.0664062 15.234375 -2.390625 C 11.367188 -4.710938 8.3125 -7.867188 6.0625 -11.859375 C 3.8125 -15.859375 2.6875 -20.203125 2.6875 -24.890625 C 2.6875 -29.628906 3.8125 -33.992188 6.0625 -37.984375 C 8.3125 -41.984375 11.367188 -45.144531 15.234375 -47.46875 C 19.109375 -49.789062 23.34375 -50.953125 27.9375 -50.953125 Z M 11.75 -24.890625 C 11.75 -20.242188 12.414062 -16.164062 13.75 -12.65625 C 15.082031 -9.15625 16.96875 -6.445312 19.40625 -4.53125 C 21.851562 -2.625 24.695312 -1.671875 27.9375 -1.671875 C 31.1875 -1.671875 34.039062 -2.625 36.5 -4.53125 C 38.96875 -6.445312 40.867188 -9.15625 42.203125 -12.65625 C 43.535156 -16.164062 44.203125 -20.242188 44.203125 -24.890625 C 44.203125 -29.441406 43.546875 -33.484375 42.234375 -37.015625 C 40.929688 -40.546875 39.054688 -43.289062 36.609375 -45.25 C 34.171875 -47.207031 31.257812 -48.1875 27.875 -48.1875 C 24.53125 -48.1875 21.648438 -47.191406 19.234375 -45.203125 C 16.816406 -43.222656 14.960938 -40.46875 13.671875 -36.9375 C 12.390625 -33.40625 11.75 -29.390625 11.75 -24.890625 Z M 11.75 -24.890625 "/></g></g></g><g fill="#f5f0e8" fill-opacity="1"><g transform="translate(1291.545801, 411.327358)"><g><path d="M 42.53125 -35.921875 C 42.53125 -33.359375 41.828125 -31.023438 40.421875 -28.921875 C 39.023438 -26.816406 37.101562 -25.160156 34.65625 -23.953125 C 32.207031 -22.742188 29.460938 -22.140625 26.421875 -22.140625 C 23.035156 -22.140625 19.816406 -22.695312 16.765625 -23.8125 L 16.765625 -7.328125 C 16.765625 -4.910156 17.359375 -3.300781 18.546875 -2.5 C 19.734375 -1.707031 21.628906 -1.3125 24.234375 -1.3125 L 24.234375 0 L 1.8125 0 L 1.8125 -1.3125 C 4.476562 -1.3125 6.328125 -1.753906 7.359375 -2.640625 C 8.398438 -3.535156 8.921875 -5.097656 8.921875 -7.328125 L 8.921875 -42.609375 C 8.921875 -44.878906 8.363281 -46.4375 7.25 -47.28125 C 6.144531 -48.132812 4.476562 -48.5625 2.25 -48.5625 L 1.8125 -48.5625 L 1.8125 -49.859375 L 23.65625 -49.859375 C 26.800781 -49.859375 29.8125 -49.375 32.6875 -48.40625 C 35.570312 -47.4375 37.929688 -45.898438 39.765625 -43.796875 C 41.609375 -41.691406 42.53125 -39.066406 42.53125 -35.921875 Z M 16.765625 -46.15625 L 16.765625 -26.34375 C 19.035156 -25.375 21.09375 -24.890625 22.9375 -24.890625 C 26.082031 -24.890625 28.617188 -25.867188 30.546875 -27.828125 C 32.484375 -29.785156 33.453125 -32.390625 33.453125 -35.640625 C 33.453125 -39.023438 32.4375 -41.78125 30.40625 -43.90625 C 28.375 -46.039062 25.566406 -47.109375 21.984375 -47.109375 C 20.390625 -47.109375 18.648438 -46.789062 16.765625 -46.15625 Z M 16.765625 -46.15625 "/></g></g></g><path stroke-linecap="round" transform="matrix(0.878029, 0.00000153858, -0.00000153858, 0.878029, 377.70303, 382.644657)" fill="none" stroke-linejoin="miter" d="M 3.999662 3.999397 L 235.844355 3.998991 " stroke="#f5f0e8" stroke-width="8" stroke-opacity="1" stroke-miterlimit="4"/></g></g></svg>